<?xml version="1.0" encoding="utf-8" ?>
<svg xmlns="http://www.w3.org/2000/svg" xmlns:xlink="http://www.w3.org/1999/xlink" width="512" height="512">
	<path transform="scale(0.5 0.5)" d="M508.924 16.2403C524.702 15.9076 540.172 16.7381 555.883 17.8897C598.147 20.9876 640.654 28.6864 680.697 42.8167C786.487 80.1469 877.196 156.636 936.287 251.469C946.154 267.305 955.124 283.844 963.351 300.582C965.932 305.835 968.125 311.303 970.668 316.545L977.545 332.799C977.809 333.619 978.042 334.319 978.435 335.094C980.108 338.389 981.206 342.04 982.491 345.5C984.334 350.464 986.338 355.473 987.977 360.5C988.879 363.27 989.509 366.235 990.593 368.925C994.044 377.489 996.361 386.867 998.729 395.771C999.291 397.883 999.489 400.185 1000.18 402.242C1001.09 404.962 1001.35 407.73 1002.01 410.5C1003.64 417.23 1004.99 423.873 1006.18 430.69C1008.53 444.098 1010.48 457.212 1012.02 470.75C1012.37 473.841 1013.06 476.896 1013.31 480C1014.36 493.225 1014.56 506.839 1014.67 520.103C1015.37 604.136 991.545 689.385 949.468 762C942.175 774.586 934.072 786.51 925.813 798.458C910.712 820.303 894.387 841.082 875.709 860.019C806.024 930.669 718.417 978.219 621.14 997.907C602.515 1001.68 583.969 1004.4 565.049 1006.24C560.169 1006.71 555.316 1007.48 550.418 1007.76C543.443 1008.15 536.379 1008.02 529.391 1008.07L517.5 1008.46C444.272 1009.73 370.826 995.079 304.25 964.419C265.579 946.61 228.328 921.904 195.899 894.349C186.253 886.153 177.004 876.835 167.895 868.025C153.317 853.923 139.817 838.06 127.25 822.167C77.6017 759.379 43.7056 685.088 30.5673 606C25.7593 577.058 24.1766 548.15 23.7104 518.852C21.5976 386.092 80.7073 255.989 172.364 161.504C259.556 71.6233 383.794 18.1016 508.924 16.2403ZM508.484 48.2371C478.51 48.7208 447.739 51.7441 418.505 58.5212C403.97 61.8907 389.895 66.4363 375.748 71.1252C368.396 73.5622 360.866 75.7333 353.65 78.5474C333.646 86.3477 313.578 95.6753 294.962 106.376C284.231 112.544 273.877 119.501 263.63 126.436C248.391 136.75 233.746 147.431 219.865 159.546C209.176 168.875 198.951 179.305 189.097 189.502C171.32 207.898 155.218 228.506 140.771 249.606C100.727 308.09 72.3412 375.367 61.0272 445.5C58.3407 462.153 56.3184 479.218 55.5991 496.081C55.0393 509.207 55.3023 522.468 55.5479 535.599C56.6889 596.602 71.3062 658.914 97.131 714.164C121.339 765.956 156.889 814.067 197.992 853.678C205.51 860.923 213.504 867.572 221.522 874.246C288.112 929.681 368.699 964.381 454.954 974.061C480.484 976.926 505.933 976.829 531.579 976.438C559.801 975.187 587.276 972.986 615.053 967.501C707.933 949.161 797.556 899.122 861.537 829.288C927.399 757.4 970.689 662.983 981.146 565.978C983.536 543.805 983.697 521.448 982.679 499.191C976.849 371.725 916.511 249.941 822.511 164.332C756.143 103.889 671.856 63.7509 582.766 52.0106C558.443 48.8053 533.015 47.9776 508.484 48.2371Z"/>
	<path fill="#FD5A79" transform="scale(0.5 0.5)" d="M508.484 48.2371C533.015 47.9776 558.443 48.8053 582.766 52.0106C671.856 63.7509 756.143 103.889 822.511 164.332C916.511 249.941 976.849 371.725 982.679 499.191C983.697 521.448 983.536 543.805 981.146 565.978C970.689 662.983 927.399 757.4 861.537 829.288C797.556 899.122 707.933 949.161 615.053 967.501C587.276 972.986 559.801 975.187 531.579 976.438C505.933 976.829 480.484 976.926 454.954 974.061C368.699 964.381 288.112 929.681 221.522 874.246C213.504 867.572 205.51 860.923 197.992 853.678C156.889 814.067 121.339 765.956 97.131 714.164C71.3062 658.914 56.6889 596.602 55.5479 535.599C55.3023 522.468 55.0393 509.207 55.5991 496.081C56.3184 479.218 58.3407 462.153 61.0272 445.5C72.3412 375.367 100.727 308.09 140.771 249.606C155.218 228.506 171.32 207.898 189.097 189.502C198.951 179.305 209.176 168.875 219.865 159.546C233.746 147.431 248.391 136.75 263.63 126.436C273.877 119.501 284.231 112.544 294.962 106.376C313.578 95.6753 333.646 86.3477 353.65 78.5474C360.866 75.7333 368.396 73.5622 375.748 71.1252C389.895 66.4363 403.97 61.8907 418.505 58.5212C447.739 51.7441 478.51 48.7208 508.484 48.2371ZM512.603 127.227C497.82 127.631 483.027 128.175 468.35 130.087C382.548 141.263 302.624 181.62 243.206 244.475C214.964 274.352 192.035 309.095 174.074 346C163.418 367.896 154.314 390.479 147.9 414C137.148 453.425 132.941 493.442 134.079 534.225C136.815 632.268 178.585 728.254 250.144 795.671C289.807 833.038 336.5 862.443 388 880.528C431.533 895.816 478.721 902.647 524.808 901.253L525.125 901.237C578.831 899.252 632.941 887.362 681.794 864.62C726.907 843.619 769.352 812.052 803.148 775.673C857.015 717.688 891.879 644.273 901.356 565.472C903.932 544.061 904.364 522.021 903.537 500.494C902.57 475.313 898.208 450.725 891.947 426.35C872.599 351.028 832.489 280.053 775.167 227.061C739.862 194.421 697.264 167.32 652.139 150.535C624.216 140.149 595.311 133.675 565.779 130.101C548.149 127.967 530.364 126.75 512.603 127.227Z"/>
	<path transform="scale(0.5 0.5)" d="M512.603 127.227C530.364 126.75 548.149 127.967 565.779 130.101C595.311 133.675 624.216 140.149 652.139 150.535C697.264 167.32 739.862 194.421 775.167 227.061C832.489 280.053 872.599 351.028 891.947 426.35C898.208 450.725 902.57 475.313 903.537 500.494C904.364 522.021 903.932 544.061 901.356 565.472C891.879 644.273 857.015 717.688 803.148 775.673C769.352 812.052 726.907 843.619 681.794 864.62C632.941 887.362 578.831 899.252 525.125 901.237L524.808 901.253C478.721 902.647 431.533 895.816 388 880.528C336.5 862.443 289.807 833.038 250.144 795.671C178.585 728.254 136.815 632.268 134.079 534.225C132.941 493.442 137.148 453.425 147.9 414C154.314 390.479 163.418 367.896 174.074 346C192.035 309.095 214.964 274.352 243.206 244.475C302.624 181.62 382.548 141.263 468.35 130.087C483.027 128.175 497.82 127.631 512.603 127.227ZM494.806 159.718C479.89 160.365 465.168 162.675 450.5 165.379C379.755 178.424 313.072 214.569 264.424 267.729C239.222 295.267 218.866 325.792 202.68 359.404C199.766 365.456 196.564 371.391 193.937 377.577C190.651 385.316 187.855 393.355 185.309 401.357C183.02 408.548 180.365 415.623 178.316 422.9C167.065 462.865 164.09 504.735 165.956 546.087C166.728 563.184 169.714 580.202 173.236 596.911C174.864 604.633 176.471 612.515 179.021 620L183.032 632.5L188.246 647.145L190.122 652.1C191.484 656.628 193.981 661.187 195.957 665.5C200.566 675.559 205.336 685.047 210.947 694.596C219.119 708.505 227.754 722.077 237.688 734.809C268.637 774.475 308.295 807.35 352.757 830.86C398.393 854.99 449.657 868.24 501.25 869.473C510.968 869.706 520.792 869.779 530.5 869.351C535.044 869.15 539.572 868.563 544.124 868.424C564.117 867.2 585.207 863.834 604.5 858.523C614.324 855.818 624.087 853.274 633.75 849.975C691.593 830.227 744.362 794.491 784.838 748.799C800.856 730.718 815.604 710.677 827.506 689.639C859.86 632.453 875.883 564.101 871.758 498.487C870.741 482.311 868.162 466.368 864.968 450.5C849.255 372.46 806.765 296.652 746.789 244.058C741.599 239.506 736.417 234.772 730.977 230.524C691.816 199.938 644.28 177.421 595.676 167.042C562.854 160.033 528.302 158.087 494.806 159.718Z"/>
	<path transform="scale(0.5 0.5)" d="M535.861 213.693C544.545 212.807 555.386 213.595 563.668 216.384C581.098 222.254 595.642 236.256 603.485 252.75C607.306 260.786 610.595 269.289 612.75 277.92C616.898 294.539 617.132 312.55 616.345 329.573C615.573 346.287 613.832 362.791 609.481 379C606.229 391.117 601.302 402.442 597.244 414.256C596.828 415.465 595.593 418.35 595.704 419.52C595.897 421.57 597.307 425.107 598.273 426.955C601.597 433.314 607.435 436.686 614.095 438.75C619.857 440.536 625.664 440.12 631.636 440.12C639.192 440.122 646.748 440.093 654.304 440.082C676.607 440.05 698.95 439.756 721.25 440.066C742.407 440.361 764.113 450.6 778.689 465.693C792.484 479.979 797.702 498.932 797.24 518.353C796.896 532.779 791.889 544.689 783.189 556.014C781.238 558.553 779.364 561.236 777.024 563.437L776.689 563.743C776.614 565.734 777.563 567.83 778.055 569.75C778.991 573.406 779.745 577.327 780.032 581.09C780.534 587.661 780.768 594.769 779.864 601.296C777.418 618.962 768.318 633.503 756.883 646.739L758.191 652.021C761.144 660.884 761.506 673.888 759.543 683.017C755.468 701.961 744.51 718.314 728.12 728.745C718.754 734.705 708.187 739.305 697.261 741.443C677.553 745.3 657.383 744.076 637.392 744.115C612.408 744.163 587.159 745.134 562.218 743.652C540.709 742.374 518.975 738.982 497.956 734.29L439.836 722.046C423.042 720.185 406.653 722.379 389.972 723.788C388.839 723.884 383.387 723.874 382.788 724.257C382.61 724.371 381.843 726.069 381.721 726.301C380.702 728.232 379.705 730.236 378.449 732.027C376.951 734.163 375.013 736.003 372.957 737.599C368.223 741.274 362.455 743.715 356.594 744.865C352.361 745.695 347.967 745.498 343.673 745.517C337.449 745.544 331.224 745.519 325 745.563C314.935 745.633 303.539 746.908 293.621 745.333C277.816 742.825 262.356 732.418 252.899 719.728C245.76 710.148 242.481 699.937 241.015 688.193C239.598 676.839 240.498 664.654 240.507 653.173C240.525 631.253 240.556 609.333 240.533 587.413C240.504 560.46 240.469 533.506 240.482 506.553C240.486 498.545 240.493 490.537 240.514 482.529C240.532 475.811 240.448 469.148 241.465 462.484C244.123 445.08 254.745 430.047 268.747 419.725C287.887 405.616 309.712 407.992 332.15 407.973C337.158 407.968 342.166 407.973 347.174 407.997C350.125 408.011 353.284 407.812 356.198 408.324C367.45 410.299 375.506 418.505 381.617 427.537L394.005 426.166C401.857 425.148 412.763 423.953 419.5 419.536C423.314 417.035 426.459 411.276 428.861 407.45C432.811 401.156 436.591 394.714 440.891 388.649C446.509 380.727 452.996 373.482 458.848 365.738C469.265 351.954 477.57 336.151 483.065 319.755C485.427 312.709 487.227 304.392 487.839 296.976C489.722 274.161 486.069 250.665 501.228 231.304C509.78 220.382 522.501 215.43 535.861 213.693Z"/>
	<path fill="#1C86FE" transform="scale(0.5 0.5)" d="M334.825 439.748C339.295 439.664 348.337 438.492 352.25 440.54C353.578 441.235 354.651 442.213 354.9 443.75C355.352 446.543 355.061 449.769 355.064 452.615C355.069 457.989 355.072 463.363 355.074 468.737C355.081 488.733 355.072 508.729 355.075 528.726C355.081 569.411 355.068 610.097 355.099 650.782C355.113 669.646 355.848 688.654 355.308 707.5C355.241 709.826 355.24 711.318 353.75 713.177C349.361 715.261 340.482 714.013 335.466 713.966C327.713 713.894 319.96 713.8 312.207 713.705C308.021 713.654 303.664 713.855 299.5 713.428C297.996 713.273 296.533 712.889 295.103 712.413C290.217 710.765 286.055 708.61 282.297 705.018C275.666 698.682 272.749 690.512 272.595 681.438C272.356 667.346 272.981 653.137 272.986 639.026C272.998 604.917 272.797 570.807 272.867 536.698C272.896 522.692 272.869 508.689 272.787 494.683C272.735 485.789 272.043 476.086 273.354 467.276C274.291 460.981 277.521 454.88 281.96 450.338C291.61 440.467 302.547 440.06 315.534 439.914C321.964 439.841 328.395 439.791 334.825 439.748Z"/>
	<path fill="#FEEE9C" transform="scale(0.5 0.5)" d="M540.338 245.208C547.904 245.347 555.16 246.685 561.5 251.072C567.352 255.122 571.844 261.632 574.986 267.919C582.705 283.363 584.558 300.371 584.551 317.422C584.545 334.984 582.521 351.93 578.338 368.995C576.63 375.964 574.6 382.706 572.217 389.473C567.908 401.711 561.949 414.09 564.37 427.424C565.866 435.662 570.553 443.923 575.914 450.25C584.295 460.142 595.921 467.158 608.518 470.18C617.637 472.368 627.504 471.573 636.817 471.53C655.559 471.444 674.301 471.388 693.043 471.36C703.422 471.344 714.965 470.407 725.205 472.14C732.984 473.457 740.787 476.537 747.25 481.067C756.727 487.711 763.226 497.599 765.159 509.027C766.818 518.842 764.164 528.277 758.288 536.231C757.721 536.999 755.827 539.48 754.984 539.826C754.626 539.974 752.87 539.579 752.332 539.509C750.093 539.218 747.948 538.913 745.694 539.276L745 539.403C743.257 539.703 741.799 540.186 740.248 541.069C736.449 543.231 733.598 547.209 732.561 551.431C730.978 557.878 732.745 564.729 738.25 568.741C740.115 570.1 742.704 571.249 743.862 573.312L744.156 573.882C747.363 579.884 749.058 586.658 748.825 593.482C748.43 605.02 741.799 615.15 733.544 622.752L728.024 621.895C723.575 621.658 719.365 623.231 716.182 626.355C713.177 629.305 711.451 633.519 711.565 637.75C711.827 647.471 717.962 650.248 723.925 656.07C727.412 659.474 728.326 665.828 728.387 670.5C728.516 680.302 723.707 689.881 716.901 696.727C703.07 710.64 684.623 712.365 666.04 712.539C646.475 712.573 626.91 712.531 607.345 712.512C586.158 712.491 565.167 712.418 544.076 710.065C519.466 707.319 496.137 700.48 472.043 695.315C443.629 689.223 416.217 686.961 387.442 692.143L387.359 459.014L400.888 457.676C414.928 455.824 428.791 452.452 440.256 443.673C444.408 440.493 448.336 436.701 451.434 432.478C456.854 425.09 460.516 416.477 465.722 408.92C471.225 400.931 477.868 393.789 483.75 386.08C498.814 366.339 510.59 343.605 517.007 319.582C519.044 311.958 520.157 304.211 520.711 296.344C521.158 289.977 521.21 283.585 521.327 277.206C521.48 268.919 520.809 257.943 526.372 251.167C529.841 246.94 535.183 245.74 540.338 245.208Z"/>
</svg>
